<svg width="67" height="21" viewBox="0 0 67 21" fill="none" xmlns="http://www.w3.org/2000/svg">
<path d="M56.604 0H54.1063C53.4167 0 52.8574 0.563186 52.8574 1.25758C52.8574 1.95197 53.4167 2.51515 54.1063 2.51515H56.604C57.2936 2.51515 57.8529 1.95197 57.8529 1.25758C57.8529 0.563186 57.2936 0 56.604 0Z" fill="#25E2CC"/>
<path d="M0 6.9344C0 4.97624 1.58198 3.44141 3.67285 3.44141C4.99424 3.44141 5.73421 3.90928 6.12633 4.18654L5.35685 5.6335C5.05201 5.42927 4.58737 5.18048 3.89042 5.18048C2.72882 5.18048 1.94582 5.91076 1.94582 6.9344C1.94582 7.95804 2.7153 8.68832 3.86214 8.68832C4.60212 8.68832 5.05201 8.43953 5.35685 8.2353L6.11158 9.6674C5.70471 9.93104 4.99424 10.4274 3.67285 10.4274C1.53896 10.4274 0 8.90741 0 6.9344Z" fill="#003D5B"/>
<path d="M6.44043 6.9344C6.44043 4.94654 8.05191 3.44141 10.0543 3.44141C12.0566 3.44141 13.6681 4.94654 13.6681 6.9344C13.6681 8.92226 12.0566 10.4274 10.0543 10.4274C8.05191 10.4274 6.44043 8.92226 6.44043 6.9344ZM11.753 6.9344C11.753 5.97017 11.0278 5.18048 10.0543 5.18048C9.08075 5.18048 8.35552 5.97017 8.35552 6.9344C8.35552 7.89862 9.0955 8.68832 10.0543 8.68832C11.0131 8.68832 11.753 7.91348 11.753 6.9344Z" fill="#003D5B"/>
<path d="M21.4629 6.58411V10.2962H19.5614V6.84652C19.5614 5.82288 18.9664 5.16562 18.0949 5.16562C17.1374 5.16562 16.5412 5.89591 16.5412 6.78834V10.2962H14.6396V3.57261H16.0041L16.0766 4.7126C16.4687 4.01078 17.3107 3.44141 18.5301 3.44141C20.3149 3.44141 21.4617 4.66928 21.4617 6.58411H21.4629Z" fill="#003D5B"/>
<path d="M22.3398 6.9344C22.3398 4.97624 23.9218 3.44141 26.0127 3.44141C27.3341 3.44141 28.0741 3.90928 28.4662 4.18654L27.6967 5.6335C27.3919 5.42927 26.9272 5.18048 26.2303 5.18048C25.0687 5.18048 24.2857 5.91076 24.2857 6.9344C24.2857 7.95804 25.0551 8.68832 26.202 8.68832C26.942 8.68832 27.3919 8.43953 27.6967 8.2353L28.4514 9.6674C28.0446 9.93104 27.3341 10.4274 26.0127 10.4274C23.8788 10.4274 22.3398 8.90741 22.3398 6.9344Z" fill="#003D5B"/>
<path d="M35.5747 7.46045H30.6689C30.8865 8.2353 31.6265 8.81952 32.6725 8.81952C33.6448 8.81952 34.1537 8.3665 34.4438 8.13256L35.228 9.50649C34.8212 9.87163 33.9939 10.4274 32.4697 10.4274C30.3506 10.4274 28.7969 8.90741 28.7969 6.9344C28.7969 4.96139 30.2338 3.44141 32.2804 3.44141C34.327 3.44141 35.6042 4.93292 35.6042 6.94925C35.6042 7.19804 35.5747 7.46045 35.5747 7.46045ZM30.6825 6.23258H33.7887C33.7014 5.47259 33.1065 4.96139 32.3517 4.96139C31.5245 4.96139 30.9 5.39956 30.6825 6.23258Z" fill="#003D5B"/>
<path d="M43.377 6.58411V10.2962H41.4754V6.84652C41.4754 5.82288 40.8805 5.16562 40.009 5.16562C39.0514 5.16562 38.4553 5.89591 38.4553 6.78834V10.2962H36.5537V3.57261H37.9181L37.9906 4.7126C38.3828 4.01078 39.2248 3.44141 40.4441 3.44141C42.2289 3.44141 43.3758 4.66928 43.3758 6.58411H43.377Z" fill="#003D5B"/>
<path d="M54.7682 3.49958L54.6085 5.39956C54.4192 5.32653 54.2458 5.26836 53.941 5.26836C52.8814 5.26836 52.2287 5.97017 52.2287 6.91954V10.2962H50.3271V3.57261H51.9091L51.9817 4.88836C52.214 4.07019 53.0412 3.44141 54.1881 3.44141C54.3909 3.44141 54.5949 3.45626 54.7682 3.49958Z" fill="#003D5B"/>
<path d="M55.6553 3.56152H57.5568V10.2851H55.6553V3.56152Z" fill="#003D5B"/>
<path d="M63.1718 10.2851L61.7779 8.15118L60.3839 10.2851H58.207L60.6015 6.90846L58.3226 3.56152H60.529L61.8209 5.62241L63.1705 3.56152H65.3339L62.9677 6.86514L65.4065 10.2851H63.1705H63.1718Z" fill="#003D5B"/>
<path d="M65.9729 4.12217V3.64562H65.7725V3.56641H66.2694V3.64562H66.0689V4.12217H65.9729Z" fill="#003D5B"/>
<path d="M66.9992 4.12217L66.998 3.56641H66.9193L66.6782 3.9464L66.4322 3.56641H66.3535V4.12217H66.4458V3.73969L66.6549 4.05656H66.6979L66.9058 3.73227L66.907 4.12217H66.9992Z" fill="#003D5B"/>
<path d="M48.931 8.32803C48.7564 8.43077 48.3938 8.69317 47.8272 8.69317C47.1449 8.69317 46.6508 8.40106 46.6508 7.61136V5.17048H49.1326V3.56261H46.6508V1.25293H44.807V3.56509H43.7646C44.3903 4.34117 44.748 5.37595 44.748 6.57287V7.80074C44.748 9.48163 45.7498 10.4174 47.3896 10.4174C48.6519 10.4174 49.3206 9.93466 49.5812 9.74528L48.9285 8.32803H48.931Z" fill="#003D5B"/>
<path d="M56.6053 2.51515C57.295 2.51515 57.8542 1.95212 57.8542 1.25758C57.8542 0.563036 57.295 0 56.6053 0C55.9156 0 55.3564 0.563036 55.3564 1.25758C55.3564 1.95212 55.9156 2.51515 56.6053 2.51515Z" fill="#003D5B"/>
<path d="M35.582 16.6848C35.582 15.3619 36.5546 14.4238 37.9092 14.4238C38.6988 14.4238 39.3546 14.7505 39.7046 15.3705L39.0979 15.7641C38.8155 15.3284 38.3832 15.128 37.9006 15.128C37.036 15.128 36.3876 15.7393 36.3876 16.686C36.3876 17.6327 37.036 18.2514 37.9006 18.2514C38.3832 18.2514 38.8143 18.051 39.0979 17.6154L39.7046 18.0002C39.3558 18.6202 38.6988 18.9544 37.9092 18.9544C36.5546 18.9544 35.582 18.0077 35.582 16.6848Z" fill="#007380"/>
<path d="M44.2241 16.2244V18.9048H43.4676V18.3183C43.2011 18.7205 42.7111 18.9544 42.021 18.9544C41.0238 18.9544 40.3926 18.4185 40.3926 17.6475C40.3926 16.936 40.8494 16.3494 42.1622 16.3494H43.4259V16.1898C43.4259 15.5116 43.0353 15.1181 42.2457 15.1181C41.7226 15.1181 41.1908 15.3025 40.8494 15.5957L40.5166 14.9931C40.9734 14.6243 41.6305 14.4238 42.3366 14.4238C43.5413 14.4238 44.2229 15.0104 44.2229 16.2244H44.2241ZM43.4271 17.5473V16.9273H42.1966C41.4069 16.9273 41.1822 17.2367 41.1822 17.6141C41.1822 18.0584 41.5482 18.3344 42.1548 18.3344C42.7615 18.3344 43.2269 18.0584 43.4259 17.5473H43.4271Z" fill="#007380"/>
<path d="M48.0125 18.6456C47.7718 18.8548 47.4058 18.955 47.0485 18.955C46.1594 18.955 45.6522 18.4612 45.6522 17.5653V15.1286H44.9043V14.4666H45.6522V13.4951H46.4504V14.4666H47.7141V15.1286H46.4504V17.5319C46.4504 18.0096 46.6997 18.2769 47.1406 18.2769C47.3739 18.2769 47.5974 18.2014 47.7644 18.0677L48.0137 18.6456H48.0125Z" fill="#007380"/>
<path d="M52.3042 16.2244V18.9048H51.5477V18.3183C51.2812 18.7205 50.7912 18.9544 50.1011 18.9544C49.1039 18.9544 48.4727 18.4185 48.4727 17.6475C48.4727 16.936 48.9295 16.3494 50.2423 16.3494H51.5059V16.1898C51.5059 15.5116 51.1154 15.1181 50.3258 15.1181C49.8026 15.1181 49.2709 15.3025 48.9295 15.5957L48.5967 14.9931C49.0535 14.6243 49.7105 14.4238 50.4167 14.4238C51.6214 14.4238 52.3029 15.0104 52.3029 16.2244H52.3042ZM51.5059 17.5473V16.9273H50.2754C49.4858 16.9273 49.2611 17.2367 49.2611 17.6141C49.2611 18.0584 49.627 18.3344 50.2337 18.3344C50.8403 18.3344 51.3058 18.0584 51.5047 17.5473H51.5059Z" fill="#007380"/>
<path d="M53.4492 12.6924H54.2479V18.9059H53.4492V12.6924Z" fill="#007380"/>
<path d="M59.6681 14.4658L57.5325 19.3478C57.142 20.2858 56.6348 20.5791 55.9618 20.5791C55.5382 20.5791 55.1059 20.4368 54.832 20.1683L55.1734 19.5656C55.3896 19.7747 55.6634 19.8923 55.9631 19.8923C56.345 19.8923 56.5869 19.7166 56.8018 19.2055L56.9431 18.8961L54.9978 14.4658H55.8292L57.3667 18.0162L58.8871 14.4658H59.6681Z" fill="#007380"/>
<path d="M59.8008 18.4346L60.1336 17.7985C60.5069 18.0671 61.1062 18.2589 61.6797 18.2589C62.419 18.2589 62.7272 18.0324 62.7272 17.6562C62.7272 16.66 59.9432 17.5226 59.9432 15.7554C59.9432 14.9597 60.6494 14.4238 61.7804 14.4238C62.3539 14.4238 63.0023 14.5748 63.3842 14.826L63.0441 15.4621C62.6449 15.2022 62.2053 15.1106 61.773 15.1106C61.0755 15.1106 60.7341 15.3705 60.7341 15.722C60.7341 16.7689 63.5267 15.915 63.5267 17.6401C63.5267 18.4445 62.7948 18.9544 61.6232 18.9544C60.8913 18.9544 60.1692 18.7279 59.8032 18.4346H59.8008Z" fill="#007380"/>
<path d="M66.9949 18.6456C66.7542 18.8548 66.3883 18.955 66.0309 18.955C65.1418 18.955 64.6346 18.4612 64.6346 17.5653V15.1286H63.8867V14.4666H64.6346V13.4951H65.4328V14.4666H66.6965V15.1286H65.4328V17.5319C65.4328 18.0096 65.6821 18.2769 66.123 18.2769C66.3563 18.2769 66.5798 18.2014 66.7468 18.0677L66.9961 18.6456H66.9949Z" fill="#007380"/>
</svg>
